<svg width="54" height="33" viewBox="0 0 54 33" fill="none" xmlns="http://www.w3.org/2000/svg">
<g clip-path="url(#clip0_985_2817)">
<path d="M0 20.8392L6.88248 0.889343H11.5947L18.4772 20.8392H14.5137L12.7717 15.5771C9.08869 15.0411 6.69322 18.2917 3.93028 20.8392H0ZM5.71929 15.4404C7.63124 13.7039 8.46289 13.1678 11.7812 12.5821L8.72951 3.43263H9.74765L5.71929 15.4404Z" fill="white"/>
<path d="M19.3406 20.8393V0.889526H27.7675C29.0707 0.889526 30.1957 1.11701 31.1425 1.57197C32.0452 1.98953 32.8042 2.66487 33.3238 3.51294C33.8331 4.35287 34.0878 5.3526 34.0878 6.51211C34.0915 7.42596 33.8362 8.32216 33.3514 9.09684C32.8596 9.89165 32.0768 10.5386 31.0029 11.0378V9.35103C31.9838 9.72679 32.7602 10.191 33.3321 10.7436C33.8757 11.2545 34.2888 11.8883 34.5367 12.592C34.7706 13.2815 34.8883 14.0051 34.8849 14.7332C34.8849 16.6443 34.2558 18.1395 32.9978 19.2189C31.7397 20.2983 29.9963 20.8384 27.7675 20.8393H19.3406ZM23.0029 10.709C24.0859 9.84283 25.3265 9.20321 27.0298 8.82469C27.4074 8.73319 27.7904 8.66537 28.1765 8.62161C28.823 8.56083 29.3493 8.36604 29.7513 7.97232C29.9742 7.75042 30.1487 7.48475 30.2638 7.19205C30.3788 6.89936 30.432 6.586 30.42 6.27173C30.42 5.57547 30.1971 5.02289 29.7513 4.61397C29.3056 4.20505 28.7069 3.99968 27.9554 3.99783H23.0029V10.709ZM23.0029 17.626H28.1447C29.0896 17.626 29.8439 17.3626 30.4075 16.8358C30.9712 16.309 31.2521 15.6082 31.2502 14.7332C31.2502 13.8588 30.9822 12.8544 30.4213 12.3184C29.8605 11.7824 29.2899 11.5407 28.3491 11.5407C26.5933 11.6111 24.6109 12.737 23.0098 14.3036L23.0029 17.626Z" fill="white"/>
<path d="M49.9305 16.2722C48.7881 17.4285 47.285 18.1331 45.6369 18.1331C42.0645 18.1331 39.1689 14.8355 39.1689 10.7685C39.1689 6.7014 42.07 3.40522 45.6369 3.40522C47.7188 3.40522 49.5672 4.52559 50.7484 6.26486C51.7123 5.79557 52.7386 5.46711 53.7959 5.28954C52.0912 2.42299 49.0865 0.517944 45.6604 0.517944C40.339 0.517944 36.0288 5.10581 36.0288 10.7657C36.0288 16.4256 40.339 21.0148 45.6604 21.0148C49.121 21.0148 52.1533 19.0711 53.8525 16.1548L53.6978 16.065C52.4628 15.7556 51.0896 15.9517 49.9305 16.2722Z" fill="white" stroke="white" stroke-width="0.25" stroke-miterlimit="10"/>
<path d="M3.19814 32.3429L0.138184 24.6108H1.11626L3.80875 31.5831H3.48963L6.19731 24.608H7.18368L4.08228 32.3443L3.19814 32.3429Z" fill="white"/>
<path d="M11.4537 32.5169C10.7616 32.5269 10.0805 32.3426 9.48786 31.9851C8.90773 31.6328 8.43112 31.1333 8.10639 30.5373C7.76035 29.9022 7.58473 29.1882 7.59663 28.4651C7.58376 27.7436 7.75391 27.0307 8.09119 26.3929C8.40365 25.8051 8.86594 25.3104 9.43122 24.9589C9.99935 24.6075 10.6559 24.4254 11.3238 24.4339C11.8228 24.4276 12.3172 24.5294 12.773 24.7323C13.194 24.9253 13.5725 25.2 13.8865 25.5405C14.5274 26.2457 14.8808 27.1654 14.877 28.1183C14.877 28.215 14.877 28.3145 14.8618 28.4167C14.8466 28.5189 14.8383 28.6281 14.819 28.7441H8.10501V27.9443H14.3216L13.9293 28.2675C13.9937 27.7409 13.906 27.2069 13.6765 26.7286C13.4628 26.2892 13.1326 25.9169 12.7219 25.6524C12.3065 25.3851 11.8218 25.2458 11.328 25.2518C10.8128 25.2465 10.3071 25.3904 9.87191 25.6662C9.43213 25.9455 9.07529 26.3377 8.83857 26.8018C8.57847 27.3172 8.46248 27.8933 8.50287 28.4692C8.46307 29.052 8.587 29.6344 8.86067 30.1505C9.10907 30.6232 9.48312 31.0181 9.94162 31.2919C10.4001 31.5656 10.9253 31.7075 11.4592 31.7019C11.9757 31.7142 12.4847 31.577 12.925 31.3068C13.3425 31.0398 13.6913 30.6782 13.9431 30.2513L14.6711 30.645C14.4985 31.0146 14.2506 31.344 13.9431 31.6121C13.6162 31.8997 13.2386 32.1241 12.8296 32.2738C12.3897 32.4381 11.9233 32.5205 11.4537 32.5169Z" fill="white"/>
<path d="M16.2295 32.3429V24.6066H17.0888V26.1787L16.8843 26.1069C17.0541 25.6084 17.3845 25.1804 17.8237 24.8898C18.2865 24.581 18.8326 24.421 19.3889 24.4312C19.9029 24.4255 20.4097 24.5525 20.8602 24.8C21.2954 25.0377 21.6596 25.3867 21.9156 25.8113C22.1791 26.2626 22.3125 26.778 22.3011 27.3005V32.3429H21.428V27.5367C21.4392 27.1196 21.3441 26.7065 21.1517 26.3362C20.9765 26.0103 20.7107 25.7421 20.3863 25.564C20.0451 25.3778 19.6616 25.2826 19.2729 25.2877C18.8656 25.277 18.4638 25.3835 18.1152 25.5944C17.7885 25.7989 17.5261 26.0915 17.3582 26.4385C17.1695 26.8254 17.0748 27.2514 17.0819 27.6818V32.3429H16.2295Z" fill="white"/>
<path d="M26.6265 32.4299C25.9763 32.4299 25.4785 32.248 25.1331 31.8842C24.7878 31.5204 24.6156 30.989 24.6165 30.29V25.441H23.1604V24.6122H23.713C23.8365 24.62 23.9601 24.6012 24.0757 24.5571C24.1913 24.513 24.2961 24.4446 24.383 24.3566C24.5475 24.1595 24.6305 23.9069 24.6151 23.6507V22.8066H25.4744V24.6122H27.1639V25.441H25.4757V30.29C25.4748 30.5051 25.5093 30.7189 25.578 30.9227C25.6471 31.1243 25.7799 31.2979 25.9565 31.4173C26.1918 31.5627 26.4664 31.6317 26.7426 31.6148C26.8199 31.6148 26.9152 31.6148 27.0271 31.5996C27.139 31.5844 27.233 31.5803 27.3103 31.5706V32.3429C27.1886 32.3762 27.0643 32.3993 26.9387 32.4119C26.8006 32.423 26.6942 32.4299 26.6265 32.4299Z" fill="white"/>
<path d="M31.4023 32.5169C30.897 32.5216 30.3986 32.3991 29.9531 32.1605C29.5124 31.9235 29.1468 31.568 28.8977 31.1341C28.6256 30.6502 28.4895 30.1017 28.504 29.5468V24.6108H29.3632V29.4887C29.3536 29.8953 29.4518 30.2971 29.6478 30.6533C29.8279 30.9747 30.099 31.2357 30.427 31.4035C30.7649 31.575 31.1394 31.6622 31.5183 31.6577C31.9304 31.6698 32.3374 31.5639 32.6912 31.3524C33.0162 31.1482 33.276 30.8553 33.44 30.5083C33.622 30.1196 33.7118 29.6941 33.7024 29.265V24.6108H34.5769V32.347H33.708V30.7694L33.9262 30.8426C33.7585 31.3395 33.4311 31.7669 32.9951 32.0583C32.5243 32.3721 31.9679 32.5323 31.4023 32.5169Z" fill="white"/>
<path d="M36.2512 32.3429V24.6066H37.1105V26.0627L36.9502 25.9315C37.1066 25.4952 37.4099 25.1269 37.8081 24.8898C38.2453 24.6351 38.7446 24.507 39.2504 24.5196H39.7311V25.3789H39.1482C38.5164 25.3789 38.019 25.5824 37.6562 25.9895C37.2933 26.3965 37.1114 26.9353 37.1105 27.6058V32.3429H36.2512Z" fill="white"/>
<path d="M43.9971 32.5169C43.305 32.5269 42.624 32.3426 42.0313 31.9851C41.4512 31.6328 40.9746 31.1333 40.6498 30.5373C40.3038 29.9022 40.1282 29.1882 40.1401 28.4651C40.1272 27.7436 40.2974 27.0307 40.6347 26.3929C40.9471 25.8051 41.4094 25.3104 41.9747 24.9589C42.5428 24.6075 43.1993 24.4254 43.8673 24.4339C44.3649 24.4286 44.8579 24.5308 45.3123 24.7337C45.7334 24.9266 46.1119 25.2014 46.4258 25.5419C47.0667 26.2471 47.4201 27.1668 47.4163 28.1197C47.4163 28.2164 47.4163 28.3159 47.4011 28.4181C47.3859 28.5203 47.3776 28.6295 47.3583 28.7455H40.6485V27.9456H46.8651L46.4727 28.2675C46.5383 27.7424 46.4525 27.2094 46.2255 26.7313C46.0118 26.292 45.6816 25.9197 45.2709 25.6552C44.8525 25.3857 44.3635 25.2462 43.8659 25.2545C43.3507 25.2492 42.845 25.3932 42.4098 25.669C41.9701 25.9483 41.6132 26.3404 41.3765 26.8045C41.1164 27.32 41.0004 27.8961 41.0408 28.472C41.001 29.0548 41.1249 29.6371 41.3986 30.1532C41.647 30.6259 42.0211 31.0209 42.4795 31.2946C42.938 31.5683 43.4632 31.7102 43.9971 31.7046C44.516 31.7163 45.0271 31.5772 45.4684 31.304C45.886 31.037 46.2348 30.6754 46.4866 30.2485L47.2146 30.6423C47.042 31.0119 46.794 31.3412 46.4866 31.6093C46.1603 31.8999 45.7827 32.1272 45.3731 32.2793C44.9328 32.4417 44.4664 32.5222 43.9971 32.5169Z" fill="white"/>
<path d="M51.3646 32.5169C50.6995 32.5296 50.0456 32.3445 49.4858 31.9851C48.945 31.634 48.5276 31.1224 48.2922 30.5221L49.0493 30.1588C49.2631 30.6196 49.5972 31.0142 50.0163 31.3012C50.4146 31.5746 50.8871 31.7193 51.3702 31.7157C51.8295 31.7325 52.2818 31.5997 52.6591 31.3372C52.8207 31.2283 52.9525 31.0808 53.0427 30.9081C53.133 30.7354 53.1787 30.5429 53.1757 30.348C53.184 30.1206 53.1148 29.897 52.9796 29.7139C52.842 29.5389 52.6711 29.3928 52.4767 29.2843C52.2716 29.1674 52.0512 29.0795 51.8219 29.0232L50.6228 28.682C49.9523 28.4978 49.4596 28.2261 49.1446 27.8669C48.8329 27.5193 48.6637 27.0669 48.6708 26.6001C48.6639 26.1962 48.7811 25.7998 49.0065 25.4645C49.2305 25.1334 49.5398 24.869 49.9016 24.6992C50.2952 24.5126 50.7261 24.4181 51.1615 24.4229C51.7814 24.4199 52.3888 24.5965 52.9105 24.9313C53.4171 25.2394 53.8028 25.7119 54.0032 26.2699L53.231 26.6346C53.0385 26.2217 52.7395 25.8674 52.3648 25.6082C52.0028 25.3611 51.5736 25.2314 51.1353 25.2366C50.7286 25.2199 50.3298 25.352 50.0135 25.6082C49.873 25.7233 49.7605 25.869 49.6849 26.0342C49.6092 26.1995 49.5723 26.3798 49.577 26.5614C49.5707 26.7737 49.6316 26.9826 49.7511 27.1582C49.869 27.3246 50.0235 27.4616 50.2028 27.5588C50.3912 27.663 50.5916 27.7437 50.7996 27.7992L52.0816 28.1639C52.6382 28.305 53.1462 28.5943 53.5515 29.0011C53.8578 29.3296 54.0416 29.7535 54.072 30.2016C54.1024 30.6497 53.9777 31.0946 53.7187 31.4615C53.474 31.8023 53.1424 32.0714 52.7585 32.2406C52.3193 32.4324 51.8438 32.5267 51.3646 32.5169Z" fill="white"/>
</g>
<defs>
<clipPath id="clip0_985_2817">
<rect width="54" height="33" fill="white"/>
</clipPath>
</defs>
</svg>
