<svg xmlns="http://www.w3.org/2000/svg" width="88" height="35" fill="none" viewBox="0 0 550 232"><path fill="#fff" d="M0 147.23 49.82 2.82h34.11l49.82 144.41h-28.69l-12.61-38.09c-26.66-3.88-44 19.65-64 38.09H0Zm41.4-39.08C55.24 95.58 61.26 91.7 85.28 87.46L63.19 21.23h7.37L41.4 108.15ZM140 147.23V2.82h61c9.433 0 17.577 1.646 24.43 4.94a36.485 36.485 0 0 1 15.79 14.05c3.687 6.08 5.53 13.317 5.53 21.71a35.002 35.002 0 0 1-5.33 18.71c-3.56 5.753-9.227 10.437-17 14.05V64.07c7.1 2.72 12.72 6.08 16.86 10.08A33.763 33.763 0 0 1 250 87.53a47.553 47.553 0 0 1 2.52 15.5c0 13.833-4.553 24.656-13.66 32.47-9.107 7.813-21.727 11.723-37.86 11.73h-61Zm26.51-73.33c7.84-6.27 16.82-10.9 29.15-13.64a67.518 67.518 0 0 1 8.3-1.47c4.68-.44 8.49-1.85 11.4-4.7a16.483 16.483 0 0 0 4.84-12.31c0-5.04-1.613-9.04-4.84-12-3.227-2.96-7.56-4.447-13-4.46h-35.85V73.9Zm0 50.07h37.22c6.84 0 12.3-1.907 16.38-5.72 4.08-3.814 6.113-8.887 6.1-15.22 0-6.33-1.94-13.6-6-17.48-4.06-3.88-8.19-5.63-15-5.63-12.71.51-27.06 8.66-38.65 20l-.05 24.05Z"/><path fill="#fff" stroke="#000" stroke-miterlimit="10" stroke-width=".25" d="M361.43 114.17c-8.27 8.37-19.15 13.47-31.08 13.47-25.86 0-46.82-23.87-46.82-53.31s21-53.3 46.82-53.3c15.07 0 28.45 8.11 37 20.7a81.054 81.054 0 0 1 22.06-7.06C377.07 13.92 355.32.13 330.52.13 292 .13 260.8 33.34 260.8 74.31c0 40.97 31.2 74.19 69.72 74.19 25.05 0 47-14.07 59.3-35.18l-1.12-.65c-8.94-2.24-18.88-.82-27.27 1.5Z"/><path fill="#fff" d="M23.15 230.5 1 174.53h7.08L27.57 225h-2.31l19.6-50.49H52l-22.45 56-6.4-.01ZM82.91 231.76a26.804 26.804 0 0 1-14.23-3.85 27.85 27.85 0 0 1-10-10.48 30.31 30.31 0 0 1-3.69-15 30.909 30.909 0 0 1 3.58-15 27.324 27.324 0 0 1 9.7-10.38 25.421 25.421 0 0 1 13.7-3.8 25.01 25.01 0 0 1 10.49 2.16 25.286 25.286 0 0 1 8.06 5.85 27.583 27.583 0 0 1 7.17 18.66c0 .7 0 1.42-.11 2.16-.11.74-.17 1.53-.31 2.37h-48.6v-5.79h45l-2.84 2.34A20.11 20.11 0 0 0 99 189.86a19.307 19.307 0 0 0-6.91-7.79 18.238 18.238 0 0 0-10.09-2.9 19.325 19.325 0 0 0-10.54 3 21.086 21.086 0 0 0-7.48 8.22 23.189 23.189 0 0 0-2.43 12.07 22.68 22.68 0 0 0 2.59 12.17 20.994 20.994 0 0 0 18.81 11.23A19.401 19.401 0 0 0 93.56 223a22.849 22.849 0 0 0 7.37-7.64l5.27 2.85a21.188 21.188 0 0 1-5.27 7 25.436 25.436 0 0 1-8.06 4.79 27.87 27.87 0 0 1-9.96 1.76ZM117.48 230.5v-56h6.22v11.38l-1.48-.52a17.222 17.222 0 0 1 6.8-8.81 19.754 19.754 0 0 1 11.33-3.32A21.617 21.617 0 0 1 151 175.9a20.254 20.254 0 0 1 7.64 7.32 20.492 20.492 0 0 1 2.79 10.78v36.5h-6.32v-34.79c.081-3.02-.607-6.01-2-8.69a13.866 13.866 0 0 0-5.54-5.59 16.376 16.376 0 0 0-8.06-2 15.408 15.408 0 0 0-8.38 2.22 14.822 14.822 0 0 0-5.48 6.11 19.791 19.791 0 0 0-2 9v33.74h-6.17ZM192.74 231.13c-4.707 0-8.31-1.317-10.81-3.95s-3.747-6.48-3.74-11.54v-35.1h-10.54v-6h4a6.255 6.255 0 0 0 4.85-1.85 7.29 7.29 0 0 0 1.68-5.11v-6.11h6.22v13.07h12.23v6h-12.22v35.1a14.15 14.15 0 0 0 .74 4.58 7.1 7.1 0 0 0 2.74 3.58 9.696 9.696 0 0 0 5.69 1.43c.56 0 1.25 0 2.06-.11s1.49-.14 2.05-.21v5.59c-.881.241-1.781.409-2.69.5-1 .08-1.77.13-2.26.13ZM227.31 231.76a21.787 21.787 0 0 1-10.49-2.58 19.41 19.41 0 0 1-7.64-7.43 22.253 22.253 0 0 1-2.85-11.49v-35.73h6.22v35.31c-.07 2.942.64 5.851 2.06 8.43a13.535 13.535 0 0 0 5.64 5.43 16.998 16.998 0 0 0 7.9 1.84 15.65 15.65 0 0 0 8.49-2.21 14.567 14.567 0 0 0 5.42-6.11 20.177 20.177 0 0 0 1.9-9v-33.69h6.33v56H244v-11.42l1.58.53a17.2 17.2 0 0 1-6.74 8.8 19.824 19.824 0 0 1-11.53 3.32ZM262.41 230.5v-56h6.22v10.54l-1.16-.95a14.451 14.451 0 0 1 6.21-7.54 19.76 19.76 0 0 1 10.44-2.68h3.48v6.22h-4.22c-4.573 0-8.173 1.473-10.8 4.42-2.627 2.947-3.943 6.847-3.95 11.7v34.29h-6.22ZM318.48 231.76a26.803 26.803 0 0 1-14.23-3.85 27.857 27.857 0 0 1-10-10.48 30.31 30.31 0 0 1-3.69-15 30.917 30.917 0 0 1 3.58-15 27.324 27.324 0 0 1 9.7-10.38 25.423 25.423 0 0 1 13.7-3.8 24.988 24.988 0 0 1 10.46 2.17 25.276 25.276 0 0 1 8.06 5.85 27.578 27.578 0 0 1 7.17 18.66c0 .7 0 1.42-.11 2.16-.11.74-.17 1.53-.31 2.37h-48.57v-5.79h45L336.4 201a20.103 20.103 0 0 0-1.79-11.12 19.305 19.305 0 0 0-6.91-7.79 18.22 18.22 0 0 0-10.17-2.9 19.325 19.325 0 0 0-10.54 3 21.094 21.094 0 0 0-7.48 8.22 23.19 23.19 0 0 0-2.43 12.07 22.68 22.68 0 0 0 2.59 12.17 20.994 20.994 0 0 0 18.81 11.23 19.402 19.402 0 0 0 10.65-2.9 22.837 22.837 0 0 0 7.37-7.64l5.27 2.85a21.16 21.16 0 0 1-5.27 7 25.44 25.44 0 0 1-8.06 4.85 27.893 27.893 0 0 1-9.96 1.72ZM371.81 231.76a24.325 24.325 0 0 1-13.6-3.85 22.345 22.345 0 0 1-8.64-10.59l5.48-2.63a20.463 20.463 0 0 0 7 8.27 17.09 17.09 0 0 0 9.8 3c3.325.122 6.599-.84 9.33-2.74a8.484 8.484 0 0 0 3.74-7.16 7.278 7.278 0 0 0-1.42-4.59 12.195 12.195 0 0 0-3.64-3.11 18.491 18.491 0 0 0-4.74-1.89l-8.68-2.47c-4.854-1.333-8.42-3.3-10.7-5.9a13.429 13.429 0 0 1-3.43-9.17 14.293 14.293 0 0 1 2.43-8.22 16.051 16.051 0 0 1 6.48-5.54 20.745 20.745 0 0 1 9.12-2 23.224 23.224 0 0 1 12.66 3.68 18.772 18.772 0 0 1 7.91 9.69l-5.59 2.64a18.587 18.587 0 0 0-6.27-7.43 15.458 15.458 0 0 0-8.9-2.69 12.107 12.107 0 0 0-8.12 2.69 8.625 8.625 0 0 0-3.16 6.9 7.29 7.29 0 0 0 1.26 4.32 9.639 9.639 0 0 0 3.27 2.9 19.12 19.12 0 0 0 4.32 1.74l9.28 2.64a23 23 0 0 1 10.64 6.06 14.155 14.155 0 0 1 1.21 17.81 16.994 16.994 0 0 1-6.95 5.64 24.007 24.007 0 0 1-10.09 2Z"/></svg>