<svg width="275" height="162" viewBox="0 0 275 162" fill="none" xmlns="http://www.w3.org/2000/svg">
<path d="M129.858 122.061C129.858 116.207 130.034 111.429 137.237 111.429C144.41 111.429 144.939 116.207 144.939 122.061L144.939 180.763C144.939 182.86 145.964 184.872 147.789 186.355C149.614 187.838 152.089 188.671 154.669 188.671L264.264 188.671C266.972 188.671 269.57 187.798 271.487 186.244C273.405 184.69 274.486 182.581 274.494 180.38L274.494 113.483C274.494 55.8088 216.698 3.7008 145.88 0.212603C127.191 -0.726893 108.463 1.45404 90.8502 6.62094C73.2378 11.7878 57.1138 19.8312 43.472 30.2555C29.8302 40.6798 18.9597 53.264 11.5301 67.2327C4.10067 81.2015 0.269679 96.2587 0.273279 111.477C0.273278 126.982 -0.197061 159.26 0.0969139 180.38C0.127889 182.579 1.22652 184.679 3.15362 186.223C5.08068 187.767 7.68017 188.63 10.3861 188.623L119.775 188.623C122.446 188.617 125.007 187.751 126.896 186.216C128.785 184.68 129.85 182.6 129.858 180.428L129.858 122.061Z" fill="#5E52E8"/>
</svg>
