<svg width="64" height="65" viewBox="0 0 64 65" fill="none" xmlns="http://www.w3.org/2000/svg">
<path d="M0 32.5C0 14.8269 14.3269 0.5 32 0.5C49.6731 0.5 64 14.8269 64 32.5C64 50.1731 49.6731 64.5 32 64.5C14.3269 64.5 0 50.1731 0 32.5Z" fill="#FAFAFF"/>
<g clip-path="url(#clip0_473_25257)">
<path d="M31.1938 38.056C32.0306 38.8901 33.1639 39.3584 34.3455 39.3584C35.5271 39.3584 36.6605 38.8901 37.4972 38.056L39.0731 36.4804C39.9099 35.6463 41.0433 35.178 42.2249 35.178C43.4064 35.178 44.5398 35.6463 45.3766 36.4804L48.5284 39.6317C48.9891 40.0174 49.3597 40.4995 49.614 41.044C49.8682 41.5884 50 42.182 50 42.7829C50 43.3838 49.8682 43.9774 49.614 44.5219C49.3597 45.0663 48.9891 45.5484 48.5284 45.9342C40.2753 54.1882 30.775 50.2672 22.4972 41.9906C14.2194 33.714 10.318 24.2242 18.5733 15.9702C18.9593 15.5098 19.4416 15.1396 19.9861 14.8856C20.5306 14.6316 21.1242 14.5 21.725 14.5C22.3259 14.5 22.9194 14.6316 23.464 14.8856C24.0085 15.1396 24.4907 15.5098 24.8768 15.9702L28.0285 19.1214C28.8632 19.9578 29.3321 21.0911 29.3321 22.2727C29.3321 23.4543 28.8632 24.5876 28.0285 25.424L26.4526 26.9996C25.6179 27.836 25.1491 28.9693 25.1491 30.1509C25.1491 31.3324 25.6179 32.4657 26.4526 33.3021L31.1938 38.056Z" fill="#6B7280"/>
</g>
<defs>
<clipPath id="clip0_473_25257">
<rect width="36" height="36" fill="white" transform="translate(14 14.5)"/>
</clipPath>
</defs>
</svg>
