<svg width="290" height="244" viewBox="0 0 290 244" fill="none" xmlns="http://www.w3.org/2000/svg">
<g clip-path="url(#clip0_1001_2749)">
<mask id="mask0_1001_2749" style="mask-type:alpha" maskUnits="userSpaceOnUse" x="0" y="0" width="397" height="271">
<path d="M210.777 2.30252L210.779 2.30262C312.423 7.27129 394.795 81.4393 394.795 162.806L394.795 258.773C394.785 261.245 393.563 263.726 391.195 265.631C388.814 267.546 385.514 268.671 382.006 268.671L223.583 268.671C220.26 268.671 217.138 267.603 214.892 265.791C212.658 263.989 211.517 261.648 211.517 259.326L211.517 175.111C211.517 170.986 211.362 166.662 209.599 163.387C208.676 161.673 207.321 160.248 205.4 159.276C203.509 158.319 201.184 157.858 198.383 157.858C195.575 157.858 193.262 158.318 191.401 159.286C189.502 160.273 188.205 161.722 187.352 163.449C186.52 165.134 186.127 167.044 185.929 168.981C185.731 170.92 185.716 173.02 185.716 175.111L185.716 258.839C185.716 258.84 185.716 258.841 185.716 258.843C185.706 261.273 184.507 263.715 182.179 265.592C179.839 267.48 176.591 268.594 173.136 268.602L15.0139 268.602L15.0092 268.602C11.5035 268.611 8.19853 267.498 5.80373 265.594C3.41982 263.699 2.17552 261.223 2.14028 258.749C1.85848 238.656 2.06282 211.548 2.23235 189.062C2.31835 177.653 2.39538 167.435 2.39538 159.926C2.39028 138.438 7.83993 117.16 18.4306 97.3981C29.0226 77.6337 44.5387 59.7953 64.0498 44.9987C83.5614 30.2018 106.646 18.7679 131.888 11.4188C157.129 4.06975 183.979 0.965568 210.777 2.30252Z" fill="#D9D6FF" stroke="#1A56DB" stroke-width="4"/>
</mask>
<g mask="url(#mask0_1001_2749)">
<path fill-rule="evenodd" clip-rule="evenodd" d="M-115.644 238.689L237.07 -111.358L236.36 -112.062L-116.354 237.985L-115.644 238.689ZM-95.4058 240.124L247.189 -99.8807L246.479 -100.585L-96.1155 239.42L-95.4058 240.124ZM247.189 -74.0575L-95.4058 265.947L-96.1155 265.243L246.479 -74.7619L247.189 -74.0575ZM-70.8318 265.947L271.763 -74.0575L271.053 -74.7619L-71.5416 265.243L-70.8318 265.947ZM271.763 -45.3651L-70.8318 294.64L-71.5416 293.935L271.053 -46.0695L271.763 -45.3651ZM-70.8318 321.897L271.763 -18.1073L271.053 -18.8117L-71.5416 321.193L-70.8318 321.897ZM315.13 -28.1498L-70.8318 354.894L-71.5416 354.189L314.42 -28.8542L315.13 -28.1498ZM-43.3663 354.894L342.595 -28.1498L341.885 -28.8542L-44.0761 354.189L-43.3663 354.894ZM371.506 -28.1498L-14.4553 354.894L-15.1651 354.189L370.796 -28.8542L371.506 -28.1498ZM14.4556 354.894L400.417 -28.1498L399.707 -28.8542L13.7458 354.189L14.4556 354.894ZM429.328 -28.1498L43.3666 354.894L42.6568 354.189L428.618 -28.8542L429.328 -28.1498ZM78.06 354.894L464.021 -28.1498L463.312 -28.8542L77.3503 354.189L78.06 354.894ZM497.269 -28.1498L111.308 354.894L110.598 354.189L496.559 -28.8542L497.269 -28.1498ZM144.555 354.894L530.516 -28.1498L529.807 -28.8542L143.845 354.189L144.555 354.894ZM563.764 -28.1498L177.802 354.894L177.093 354.189L563.054 -28.8542L563.764 -28.1498ZM213.941 354.894L599.903 -28.1498L599.193 -28.8542L213.232 354.189L213.941 354.894ZM638.933 -28.1498L252.971 354.894L252.262 354.189L638.223 -28.8542L638.933 -28.1498ZM252.971 383.586L638.933 0.542603L638.223 -0.161819L252.262 382.882L252.971 383.586Z" fill="#9D95FA"/>
</g>
</g>
<g clip-path="url(#clip1_1001_2749)">
<path d="M73.863 191.367L75.7886 292.963C75.8208 294.664 77.1354 296.288 79.443 297.479C81.7507 298.67 84.8624 299.33 88.0937 299.314L229.445 298.594C231.048 298.588 232.633 298.416 234.11 298.087C235.586 297.759 236.925 297.28 238.049 296.678C239.173 296.077 240.06 295.364 240.66 294.582C241.26 293.8 241.56 292.962 241.544 292.119L239.619 190.523C239.142 165.386 201.641 145.189 156.028 145.421C110.416 145.654 73.3866 166.231 73.863 191.367Z" fill="#4F44D1"/>
</g>
<defs>
<clipPath id="clip0_1001_2749">
<rect width="397" height="244" fill="white"/>
</clipPath>
<clipPath id="clip1_1001_2749">
<rect width="169" height="99" fill="white" transform="translate(73 145)"/>
</clipPath>
</defs>
</svg>
