<svg width="64" height="64" viewBox="0 0 64 64" fill="none" xmlns="http://www.w3.org/2000/svg">
<path d="M0 32C0 14.3269 14.3269 0 32 0C49.6731 0 64 14.3269 64 32C64 49.6731 49.6731 64 32 64C14.3269 64 0 49.6731 0 32Z" fill="#FAFAFF"/>
<g clip-path="url(#clip0_473_25245)">
<path d="M50 24.8947C50 22.4638 47.0732 16.6905 46.1768 14.9796C46.0213 14.6828 45.7929 14.4353 45.5156 14.263C45.2382 14.0907 44.922 13.9999 44.6 14H19.4C19.0811 13.9999 18.7679 14.0889 18.4924 14.258C18.2169 14.4272 17.9891 14.6703 17.8322 14.9625C16.934 16.6394 14 22.3084 14 24.8947C14.0008 25.7222 14.1607 26.5409 14.47 27.3015C14.7794 28.0622 15.2318 28.7491 15.8 29.3208V48.1053C15.8 48.6078 15.9896 49.0897 16.3272 49.445C16.6648 49.8004 17.1226 50 17.6 50H21.2C21.6774 50 22.1352 49.8004 22.4728 49.445C22.8104 49.0897 23 48.6078 23 48.1053V36.7368H30.2V48.1053C30.2 48.6078 30.3896 49.0897 30.7272 49.445C31.0648 49.8004 31.5226 50 32 50H46.4C46.8774 50 47.3352 49.8004 47.6728 49.445C48.0104 49.0897 48.2 48.6078 48.2 48.1053V29.2413C48.7586 28.6784 49.2055 28.0044 49.5145 27.2582C49.8235 26.512 49.9885 25.7086 50 24.8947ZM20.4638 17.7895H43.52C44.7629 20.0195 45.7307 22.4071 46.4 24.8947C46.363 25.5101 46.1141 26.0902 45.6999 26.5262C45.2857 26.9622 44.7346 27.2243 44.15 27.2632C43.5536 27.2622 42.9818 27.0123 42.5601 26.5684C42.1383 26.1244 41.901 25.5226 41.9 24.8947C41.9 24.3922 41.7104 23.9103 41.3728 23.555C41.0352 23.1996 40.5774 23 40.1 23C39.6226 23 39.1648 23.1996 38.8272 23.555C38.4896 23.9103 38.3 24.3922 38.3 24.8947C38.3 25.5229 38.0629 26.1253 37.641 26.5695C37.219 27.0136 36.6467 27.2632 36.05 27.2632C35.4533 27.2632 34.881 27.0136 34.459 26.5695C34.0371 26.1253 33.8 25.5229 33.8 24.8947C33.8 24.3922 33.6104 23.9103 33.2728 23.555C32.9352 23.1996 32.4774 23 32 23C31.5226 23 31.0648 23.1996 30.7272 23.555C30.3896 23.9103 30.2 24.3922 30.2 24.8947C30.2 25.5229 29.9629 26.1253 29.541 26.5695C29.119 27.0136 28.5467 27.2632 27.95 27.2632C27.3533 27.2632 26.781 27.0136 26.359 26.5695C25.9371 26.1253 25.7 25.5229 25.7 24.8947C25.7 24.3922 25.5104 23.9103 25.1728 23.555C24.8352 23.1996 24.3774 23 23.9 23C23.4226 23 22.9648 23.1996 22.6272 23.555C22.2896 23.9103 22.1 24.3922 22.1 24.8947C22.099 25.5226 21.8617 26.1244 21.4399 26.5684C21.0182 27.0123 20.4464 27.2622 19.85 27.2632C19.2556 27.2553 18.6876 27.0032 18.2673 26.5608C17.8469 26.1183 17.6075 25.5204 17.6 24.8947C18.2377 22.3982 19.2015 20.007 20.4638 17.7895ZM41.9 40.5263C41.9 40.7776 41.8052 41.0185 41.6364 41.1962C41.4676 41.3739 41.2387 41.4737 41 41.4737H35.6C35.3613 41.4737 35.1324 41.3739 34.9636 41.1962C34.7948 41.0185 34.7 40.7776 34.7 40.5263V34.8421C34.7 34.5908 34.7948 34.3499 34.9636 34.1722C35.1324 33.9945 35.3613 33.8947 35.6 33.8947H41C41.2387 33.8947 41.4676 33.9945 41.6364 34.1722C41.8052 34.3499 41.9 34.5908 41.9 34.8421V40.5263Z" fill="#6B7280"/>
</g>
<defs>
<clipPath id="clip0_473_25245">
<rect width="36" height="36" fill="white" transform="translate(14 14)"/>
</clipPath>
</defs>
</svg>
