<svg width="248" height="184" viewBox="0 0 248 184" fill="none" xmlns="http://www.w3.org/2000/svg">
<path d="M90.748 72.7916L90.748 174.405C90.748 176.106 92.0316 177.756 94.3162 178.99C96.6009 180.225 99.6995 180.943 102.931 180.988L244.27 182.947C245.873 182.972 247.461 182.83 248.944 182.529C250.426 182.228 251.773 181.775 252.909 181.195C254.044 180.615 254.945 179.919 255.559 179.148C256.174 178.378 256.49 177.546 256.49 176.702L256.49 75.0885C256.49 49.9473 219.379 29.043 173.769 28.4109C128.16 27.7788 90.748 47.6504 90.748 72.7916Z" fill="#9D95FA"/>
<path d="M-5.54002e-06 53.6762L-3.28931e-07 172.892C-2.41694e-07 174.888 1.28351 176.82 3.56817 178.262C5.85283 179.705 8.9515 180.541 12.1825 180.586L153.522 182.545C155.125 182.57 156.713 182.399 158.195 182.043C159.678 181.687 161.025 181.152 162.161 180.468C163.296 179.785 164.196 178.967 164.811 178.061C165.426 177.155 165.742 176.179 165.742 175.189L165.742 55.9731C165.742 26.4769 128.631 2.04048 83.0214 1.40841C37.4123 0.776336 -6.82934e-06 24.18 -5.54002e-06 53.6762Z" fill="#EFD2FF"/>
</svg>