<svg width="64" height="64" viewBox="0 0 64 64" fill="none" xmlns="http://www.w3.org/2000/svg">
<path d="M0 32C0 14.3269 14.3269 0 32 0C49.6731 0 64 14.3269 64 32C64 49.6731 49.6731 64 32 64C14.3269 64 0 49.6731 0 32Z" fill="#FAFAFF"/>
<path d="M32.0003 14C29.2655 13.9974 26.5822 14.7133 24.2409 16.0701C21.8997 17.4268 19.9898 19.3728 18.7183 21.697C17.4468 24.0212 16.862 26.6352 17.0274 29.2556C17.1928 31.8761 18.1021 34.4031 19.6566 36.563C19.7189 36.6804 19.7943 36.7908 19.8816 36.8924L20.1066 37.1552C20.3167 37.4162 20.5323 37.6682 20.7179 37.8752L30.5527 49.3484C30.7291 49.5527 30.9503 49.7171 31.2005 49.8297C31.4508 49.9424 31.7239 50.0005 32.0003 50C32.2774 50.0001 32.5512 49.9413 32.8018 49.8277C33.0524 49.7141 33.2737 49.5485 33.4497 49.343L42.9976 38.174C43.3843 37.7748 43.7462 37.3541 44.0814 36.914L44.3195 36.635C44.4103 36.5292 44.4871 36.4132 44.5483 36.2894C46.0301 34.1174 46.8726 31.6013 46.9867 29.0072C47.1007 26.4132 46.4821 23.8379 45.1962 21.5538C43.9103 19.2696 42.0051 17.3617 39.6821 16.032C37.3591 14.7023 34.7049 14.0002 32.0003 14ZM32.0003 23C33.1128 23 34.2004 23.3167 35.1255 23.9101C36.0506 24.5034 36.7716 25.3468 37.1973 26.3335C37.6231 27.3202 37.7345 28.406 37.5174 29.4535C37.3004 30.501 36.7646 31.4632 35.9779 32.2184C35.1912 32.9736 34.1889 33.4879 33.0977 33.6962C32.0065 33.9046 30.8755 33.7977 29.8476 33.389C28.8197 32.9802 27.9412 32.2881 27.3231 31.4001C26.7049 30.5121 26.375 29.468 26.375 28.4C26.375 26.9678 26.9677 25.5943 28.0226 24.5816C29.0776 23.5689 30.5084 23 32.0003 23Z" fill="#6B7280"/>
</svg>
