<svg width="256" height="155" viewBox="0 0 256 155" fill="none" xmlns="http://www.w3.org/2000/svg">
<g clip-path="url(#clip0_473_13941)">
<path d="M105 72.7916L105 174.405C105 176.106 106.284 177.756 108.568 178.99C110.853 180.225 113.951 180.943 117.182 180.988L258.522 182.947C260.125 182.972 261.713 182.83 263.195 182.529C264.678 182.228 266.025 181.775 267.161 181.195C268.296 180.615 269.196 179.919 269.811 179.148C270.426 178.378 270.742 177.546 270.742 176.702L270.742 75.0885C270.742 49.9473 233.631 29.043 188.021 28.4109C142.412 27.7788 105 47.6504 105 72.7916Z" fill="#9a99f6"/>
<path d="M-0.286138 53.6762L-0.286133 172.892C-0.286133 174.888 0.997377 176.82 3.28204 178.262C5.5667 179.705 8.66536 180.541 11.8964 180.586L153.236 182.545C154.839 182.57 156.427 182.399 157.909 182.043C159.392 181.687 160.739 181.152 161.874 180.468C163.01 179.785 163.91 178.967 164.525 178.061C165.139 177.155 165.456 176.179 165.456 175.189L165.456 55.9731C165.456 26.4769 128.344 2.04048 82.7352 1.40841C37.1261 0.776336 -0.28614 24.18 -0.286138 53.6762Z" fill="#f0d3fd"/>
</g>
<defs>
<clipPath id="clip0_473_13941">
<rect width="256" height="155" fill="white"/>
</clipPath>
</defs>
</svg>
