<svg width="239" height="163" viewBox="0 0 239 163" fill="none" xmlns="http://www.w3.org/2000/svg">
<path d="M94.8579 122.061C94.8579 116.207 95.0343 111.429 102.237 111.429C109.41 111.429 109.939 116.207 109.939 122.061L109.939 180.763C109.939 182.86 110.964 184.872 112.789 186.355C114.614 187.838 117.089 188.671 119.669 188.671L229.264 188.671C231.972 188.671 234.57 187.798 236.487 186.244C238.405 184.69 239.486 182.581 239.494 180.38L239.494 113.483C239.494 55.8088 181.698 3.7008 110.88 0.212603C92.1905 -0.726893 73.4627 1.45404 55.8502 6.62094C38.2378 11.7878 22.1138 19.8312 8.47203 30.2555C-5.16976 40.6798 -16.0403 53.264 -23.4699 67.2327C-30.8993 81.2015 -34.7303 96.2587 -34.7267 111.477C-34.7267 126.982 -35.1971 159.26 -34.9031 180.38C-34.8721 182.579 -33.7735 184.679 -31.8464 186.223C-29.9193 187.767 -27.3198 188.63 -24.6139 188.623L84.7745 188.623C87.4464 188.617 90.0067 187.751 91.896 186.216C93.7853 184.68 94.8502 182.6 94.8579 180.428L94.8579 122.061Z" fill="#D9D6FF"/>
</svg>
